/* XPM */
static char * audacity16_xpm[] = {
"16 16 161 2",
"  	c #FFFFFF",
". 	c #E8E8F9",
"+ 	c #9F9FE4",
"@ 	c #7574C9",
"# 	c #7272C6",
"$ 	c #9A99D8",
"% 	c #E4E3F4",
"& 	c #FAFAFE",
"* 	c #8685D3",
"= 	c #424290",
"- 	c #8E8EAA",
"; 	c #B8B8C4",
"> 	c #B8B8C7",
", 	c #8F8FB4",
"' 	c #393892",
") 	c #6E6DB6",
"! 	c #F6F6FA",
"~ 	c #FEFEFF",
"{ 	c #6C6CC1",
"] 	c #8E8EA5",
"^ 	c #FDFDFD",
"/ 	c #FDFDFE",
"( 	c #9090C0",
"_ 	c #4B4A9D",
": 	c #FCFCFD",
"< 	c #B2B2EA",
"[ 	c #717099",
"} 	c #7473BB",
"| 	c #9E9DC2",
"1 	c #5B5BB3",
"2 	c #D3D3DA",
"3 	c #FFFEFB",
"4 	c #FDF6DA",
"5 	c #FDF7E0",
"6 	c #FFFDF9",
"7 	c #FFFEFC",
"8 	c #DFDEF2",
"9 	c #494998",
"0 	c #EBEBFA",
"a 	c #2E2D99",
"b 	c #B8B8DB",
"c 	c #F6F6FB",
"d 	c #FEFAEA",
"e 	c #F7D65C",
"f 	c #F4C94D",
"g 	c #F3D764",
"h 	c #F7D97E",
"i 	c #F8EBB6",
"j 	c #C3C2E5",
"k 	c #272697",
"l 	c #E4E4F1",
"m 	c #5A59DA",
"n 	c #151566",
"o 	c #7574BA",
"p 	c #E8E5E2",
"q 	c #F9D959",
"r 	c #FAC311",
"s 	c #F5BE20",
"t 	c #F9CD10",
"u 	c #F6C526",
"v 	c #EFD87E",
"w 	c #F9F7F4",
"x 	c #1110AF",
"y 	c #292981",
"z 	c #F6F6F9",
"A 	c #B1B1EC",
"B 	c #2929BA",
"C 	c #01014D",
"D 	c #DECB8E",
"E 	c #FBCD0E",
"F 	c #FCAF06",
"G 	c #FABE0D",
"H 	c #FCAF05",
"I 	c #FBC30A",
"J 	c #F5D01F",
"K 	c #EED35A",
"L 	c #7473BA",
"M 	c #0909AE",
"N 	c #020176",
"O 	c #A1A1BA",
"P 	c #7777D8",
"Q 	c #0E0CA2",
"R 	c #7472B2",
"S 	c #DFBA2B",
"T 	c #FCB105",
"U 	c #FC8304",
"V 	c #FBA405",
"W 	c #FC7004",
"X 	c #FBA906",
"Y 	c #EEB114",
"Z 	c #6F6CAA",
"` 	c #0A09B0",
" .	c #020182",
"..	c #6D6D8E",
"+.	c #7271D0",
"@.	c #05049C",
"#.	c #6E6698",
"$.	c #E5680E",
"%.	c #FB4704",
"&.	c #FC3904",
"*.	c #FC4E04",
"=.	c #FC2203",
"-.	c #FC1B04",
";.	c #FC2803",
">.	c #F03F0D",
",.	c #696499",
"'.	c #0908AF",
").	c #020180",
"!.	c #6B6B84",
"~.	c #A1A1DA",
"{.	c #030299",
"].	c #01014E",
"^.	c #6B6087",
"/.	c #E53A0D",
"(.	c #FC6905",
"_.	c #FB8405",
":.	c #FC4904",
"<.	c #FC5304",
"[.	c #FC6204",
"}.	c #FB7704",
"|.	c #EF770F",
"1.	c #0908AE",
"2.	c #010168",
"3.	c #90909E",
"4.	c #F2F2F9",
"5.	c #1B1B91",
"6.	c #70699F",
"7.	c #E49314",
"8.	c #FCD505",
"9.	c #FACE08",
"0.	c #FB9A05",
"a.	c #FBBB06",
"b.	c #FAC308",
"c.	c #FBD00A",
"d.	c #E7CB2C",
"e.	c #6F6DB0",
"f.	c #0606A4",
"g.	c #13133D",
"h.	c #EBEBEE",
"i.	c #CFCFE3",
"j.	c #3F3F72",
"k.	c #9999C6",
"l.	c #E3C351",
"m.	c #F6D817",
"n.	c #F0CE29",
"o.	c #F8C110",
"p.	c #F6CE19",
"q.	c #EFCD2B",
"r.	c #F3CF21",
"s.	c #E6DBB2",
"t.	c #9C9BC9",
"u.	c #3E3D84",
"v.	c #C6C5CB",
"w.	c #FDFBF7",
"x.	c #F4EAD1",
"y.	c #F4EBD5",
"z.	c #F5E2A0",
"A.	c #F1E0A8",
"B.	c #F2E8CB",
"C.	c #F2E5BC",
"D.	c #FDFCF9",
"                                ",
"          . + @ # $ %           ",
"      & * = - ; > , ' ) !       ",
"    ~ { ] ^         / ( _ :     ",
"    < [                 } |     ",
"    1 2     3 4 5 6 7   8 9     ",
"  0 a b c d e f g h i ~ j k l   ",
"& m n o p q r s t u v w o x y z ",
"A B C o D E F G H I J K L M N O ",
"P Q C R S T U V W U X Y Z `  ...",
"+.@.C #.$.%.&.*.=.-.;.>.,.'.).!.",
"~.{.].^./.(._.:.<.[.}.|.,.1.2.3.",
"4.5.].6.7.8.9.0.a.b.c.d.e.f.g.h.",
"  i.j.k.l.m.n.o.p.q.r.s.t.u.v.  ",
"        w.x.y.z.A.B.C.D.        ",
"                                "};
