/* XPM */
static char * audacity_xpm[] = {
"32 32 534 2",
"  	c #FFFFFF",
". 	c #FDFDFF",
"+ 	c #F1F1FB",
"@ 	c #D6D5F4",
"# 	c #D5D5F3",
"$ 	c #EEEEFA",
"% 	c #FDFDFE",
"& 	c #F6F6FD",
"* 	c #ABABEB",
"= 	c #5E5DD6",
"- 	c #2323BB",
"; 	c #0807A1",
"> 	c #040594",
", 	c #030392",
"' 	c #030298",
") 	c #1918A6",
"! 	c #5151BD",
"~ 	c #A0A0D8",
"{ 	c #F0F0F9",
"] 	c #FCFCFE",
"^ 	c #9A99E8",
"/ 	c #3433C6",
"( 	c #151484",
"_ 	c #121154",
": 	c #3C3C63",
"< 	c #6A6982",
"[ 	c #787890",
"} 	c #777692",
"| 	c #6B6B8D",
"1 	c #404077",
"2 	c #0D0C65",
"3 	c #02027B",
"4 	c #151496",
"5 	c #8988C7",
"6 	c #F7F7FB",
"7 	c #EBEBFA",
"8 	c #5B5ADB",
"9 	c #262689",
"0 	c #29284E",
"a 	c #9897A8",
"b 	c #EDECF1",
"c 	c #F1F1F5",
"d 	c #9F9EBD",
"e 	c #2E2E7B",
"f 	c #353499",
"g 	c #DCDCEB",
"h 	c #EAE9FB",
"i 	c #4F4ED2",
"j 	c #212263",
"k 	c #787787",
"l 	c #F6F5F8",
"m 	c #F8F8FB",
"n 	c #8887B4",
"o 	c #080779",
"p 	c #1D1D85",
"q 	c #D8D8E9",
"r 	c #FBFBFE",
"s 	c #5857D9",
"t 	c #20205E",
"u 	c #A1A0AC",
"v 	c #B3B3D3",
"w 	c #090882",
"x 	c #2C2C84",
"y 	c #F3F3F8",
"z 	c #9B9AE9",
"A 	c #24248C",
"B 	c #7D7C8D",
"C 	c #9897C7",
"D 	c #020180",
"E 	c #7A79AA",
"F 	c #FAFAFD",
"G 	c #3534C5",
"H 	c #2A2951",
"I 	c #F7F7F9",
"J 	c #3938A7",
"K 	c #10106A",
"L 	c #EEEDF4",
"M 	c #C2C2F0",
"N 	c #0F0E90",
"O 	c #898998",
"P 	c #FFFEFA",
"Q 	c #FFFEFB",
"R 	c #9F9FD6",
"S 	c #02027A",
"T 	c #A9A8BF",
"U 	c #9493E0",
"V 	c #08086B",
"W 	c #C4C4D1",
"X 	c #FEFCF4",
"Y 	c #FEFCF3",
"Z 	c #F8DE7E",
"` 	c #F7E08D",
" .	c #FEFDFB",
"..	c #FDF9E6",
"+.	c #DEDDF3",
"@.	c #030291",
"#.	c #777696",
"$.	c #7878DA",
"%.	c #070763",
"&.	c #D7D6E3",
"*.	c #F1F0F8",
"=.	c #FFFEFC",
"-.	c #F9E796",
";.	c #F6D869",
">.	c #F5DD86",
",.	c #F6C43E",
"'.	c #F3CD46",
").	c #F6EDCD",
"!.	c #FDF6E1",
"~.	c #F7D467",
"{.	c #F7E28D",
"].	c #FFFEFD",
"^.	c #F6F6FB",
"/.	c #08079F",
"(.	c #626183",
"_.	c #AEADED",
":.	c #2625D0",
"<.	c #121258",
"[.	c #D6D6E4",
"}.	c #4444AC",
"|.	c #DDDCED",
"1.	c #FAECAF",
"2.	c #F7DB3F",
"3.	c #F5BD31",
"4.	c #EFD14B",
"5.	c #F7B027",
"6.	c #F4CC24",
"7.	c #EED458",
"8.	c #F2D874",
"9.	c #F5C33D",
"0.	c #EED35C",
"a.	c #FCFAF4",
"b.	c #F9F9FD",
"c.	c #4544AB",
"d.	c #E1E0F4",
"e.	c #1D1DB8",
"f.	c #141383",
"g.	c #9493C6",
"h.	c #B3B2EE",
"i.	c #1B1ACF",
"j.	c #3F3FB5",
"k.	c #010133",
"l.	c #D6D5E4",
"m.	c #151390",
"n.	c #D5D4E4",
"o.	c #FCF1C3",
"p.	c #F7D239",
"q.	c #FAE415",
"r.	c #F7A81B",
"s.	c #F0D332",
"t.	c #F8A91A",
"u.	c #FAD10D",
"v.	c #F5CD1E",
"w.	c #F1D637",
"x.	c #F6B428",
"y.	c #EDCC4A",
"z.	c #F7F3E7",
"A.	c #F5F5FC",
"B.	c #0B0A83",
"C.	c #DFDFF2",
"D.	c #0A0AB3",
"E.	c #2423AA",
"F.	c #03036E",
"G.	c #9695BD",
"H.	c #ECECFB",
"I.	c #1D1CCD",
"J.	c #7E7EDD",
"K.	c #141381",
"L.	c #01012D",
"M.	c #D6D5E3",
"N.	c #D3D2E3",
"O.	c #FAEEC4",
"P.	c #F7DB51",
"Q.	c #F9C718",
"R.	c #FDE806",
"S.	c #FA960E",
"T.	c #F3D824",
"U.	c #FAA511",
"V.	c #FCD407",
"W.	c #FAC10C",
"X.	c #F6DF1E",
"Y.	c #F9AD1A",
"Z.	c #EECB3A",
"`.	c #EBD88E",
" +	c #FBF5DB",
".+	c #F4F4FB",
"++	c #0A0A84",
"@+	c #DFDEF1",
"#+	c #0605B2",
"$+	c #100EAD",
"%+	c #0B0B5D",
"&+	c #DCDCE8",
"*+	c #8C8CE4",
"=+	c #2322CB",
"-+	c #4343BB",
";+	c #01016D",
">+	c #01012C",
",+	c #16148F",
"'+	c #CDCAD4",
")+	c #F2D768",
"!+	c #F9D61C",
"~+	c #FCC509",
"{+	c #FDDF05",
"]+	c #FB8B09",
"^+	c #F9E118",
"/+	c #FA9C0A",
"(+	c #FCD004",
"_+	c #FBA406",
":+	c #FAE40D",
"<+	c #FBAB0E",
"[+	c #F3D024",
"}+	c #F1D136",
"|+	c #F4D34C",
"1+	c #ECE1BC",
"2+	c #090983",
"3+	c #DFDEF2",
"4+	c #0606B1",
"5+	c #0C0BAA",
"6+	c #020189",
"7+	c #01015A",
"8+	c #6F6E98",
"9+	c #3838CD",
"0+	c #3333C8",
"a+	c #0B0A9A",
"b+	c #01012E",
"c+	c #141390",
"d+	c #C7BDB7",
"e+	c #F2D044",
"f+	c #FBD70F",
"g+	c #FCC006",
"h+	c #FCD206",
"i+	c #FC7E05",
"j+	c #FBEC0E",
"k+	c #FC9206",
"l+	c #FCC604",
"m+	c #FB8205",
"n+	c #FCD007",
"o+	c #FAAB08",
"p+	c #F9D210",
"q+	c #F8CB11",
"r+	c #F9DC11",
"s+	c #DDBD50",
"t+	c #090883",
"u+	c #DEDDF1",
"v+	c #0606B2",
"w+	c #0D0CAC",
"x+	c #02018E",
"y+	c #010167",
"z+	c #1A1953",
"A+	c #FDFDFD",
"B+	c #0707BB",
"C+	c #211FB9",
"D+	c #020293",
"E+	c #01016C",
"F+	c #D8D7E1",
"G+	c #131291",
"H+	c #C2AB5C",
"I+	c #F6D422",
"J+	c #FCD307",
"K+	c #FCAF05",
"L+	c #FCBC04",
"M+	c #FC6C04",
"N+	c #FAF206",
"O+	c #FC7604",
"P+	c #FCAE04",
"Q+	c #FC5804",
"R+	c #FBAC04",
"S+	c #FBCD07",
"T+	c #FBB806",
"U+	c #FCDB08",
"V+	c #DFAC29",
"W+	c #0A0982",
"X+	c #DBD8E6",
"Y+	c #0D0CAE",
"Z+	c #020193",
"`+	c #010170",
" @	c #02013A",
".@	c #DFDEEA",
"+@	c #DADAF5",
"@@	c #0202B3",
"#@	c #1210AD",
"$@	c #020191",
"%@	c #D4CDC9",
"&@	c #12118C",
"*@	c #CCB322",
"=@	c #FAB40A",
"-@	c #FCB804",
";@	c #FC8A04",
">@	c #FC9504",
",@	c #FC4F03",
"'@	c #FCD506",
")@	c #FC5404",
"!@	c #FC8304",
"~@	c #FC3803",
"{@	c #FB7F05",
"]@	c #FC5003",
"^@	c #FCA304",
"/@	c #FB7C07",
"(@	c #FB9E06",
"_@	c #E49E1A",
":@	c #0B0982",
"<@	c #CEC7BE",
"[@	c #0D0BAD",
"}@	c #010172",
"|@	c #D4D3DF",
"1@	c #D4D4F2",
"2@	c #0202AD",
"3@	c #0A0AA8",
"4@	c #CEC1B0",
"5@	c #12108A",
"6@	c #CFA218",
"7@	c #FB5A05",
"8@	c #FB8404",
"9@	c #FC4A04",
"0@	c #FC5204",
"a@	c #FC3503",
"b@	c #FC9405",
"c@	c #FC3303",
"d@	c #FC4D05",
"e@	c #FC1A03",
"f@	c #FB2F05",
"g@	c #FC1F04",
"h@	c #FC5304",
"i@	c #FC2904",
"j@	c #FB4405",
"k@	c #E46E17",
"l@	c #0A0882",
"m@	c #C8BFB0",
"n@	c #0505B2",
"o@	c #0D0CAD",
"p@	c #020192",
"q@	c #010173",
"r@	c #D2D2DD",
"s@	c #EEEEFB",
"t@	c #0202A7",
"u@	c #0605A5",
"v@	c #C6B79C",
"w@	c #120F89",
"x@	c #CE7917",
"y@	c #FC2C03",
"z@	c #FB3206",
"A@	c #FC1D03",
"B@	c #FB2105",
"C@	c #FB3E06",
"D@	c #FC5505",
"E@	c #FC1B03",
"F@	c #FD1303",
"G@	c #FD0E02",
"H@	c #FD0F04",
"I@	c #FD0F03",
"J@	c #FD1203",
"K@	c #E33717",
"L@	c #090982",
"M@	c #C9BFAF",
"N@	c #0505B1",
"O@	c #010169",
"P@	c #010125",
"Q@	c #D8D8E2",
"R@	c #FEFEFF",
"S@	c #1E1EA9",
"T@	c #0302A2",
"U@	c #020194",
"V@	c #01012F",
"W@	c #C6B28A",
"X@	c #121089",
"Y@	c #CF4B17",
"Z@	c #FC2303",
"`@	c #FB3D05",
" #	c #FC3504",
".#	c #FC3804",
"+#	c #FB9B05",
"@#	c #FC3E04",
"##	c #FC2404",
"$#	c #FC3705",
"%#	c #FB3905",
"&#	c #FC3E03",
"*#	c #FB4105",
"=#	c #FC4904",
"-#	c #FB4206",
";#	c #E33E16",
">#	c #0A0981",
",#	c #C8BFAF",
"'#	c #0D0BAC",
")#	c #02018D",
"!#	c #010158",
"~#	c #090926",
"{#	c #F2F2F6",
"]#	c #6868C0",
"^#	c #030297",
"/#	c #020196",
"(#	c #C3AF82",
"_#	c #131086",
":#	c #CE3E16",
"<#	c #FC3B04",
"[#	c #FCA605",
"}#	c #FB8A06",
"|#	c #FB6604",
"1#	c #FBD705",
"2#	c #FC5004",
"3#	c #FC7104",
"4#	c #FC5E05",
"5#	c #FC9905",
"6#	c #FB8605",
"7#	c #FC8904",
"8#	c #FBC704",
"9#	c #FB8D05",
"0#	c #FBBD06",
"a#	c #E49D1B",
"b#	c #C8C0B2",
"c#	c #0C0BAB",
"d#	c #010181",
"e#	c #010139",
"f#	c #48475D",
"g#	c #CCCCE8",
"h#	c #03038A",
"i#	c #020190",
"j#	c #C4B394",
"k#	c #CD7919",
"l#	c #FC8105",
"m#	c #FCE505",
"n#	c #FCB805",
"o#	c #FA9D06",
"p#	c #FCF204",
"q#	c #FC7905",
"r#	c #FCA004",
"s#	c #FAA005",
"t#	c #FCBF04",
"u#	c #FABB05",
"v#	c #FBB606",
"w#	c #FDE907",
"x#	c #FAB208",
"y#	c #FBEB09",
"z#	c #E0B727",
"A#	c #090881",
"B#	c #D0CCD2",
"C#	c #0605B1",
"D#	c #0A09A7",
"E#	c #01015C",
"F#	c #01011A",
"G#	c #B0AFBC",
"H#	c #6666B0",
"I#	c #02017A",
"J#	c #01016F",
"K#	c #D5D0D1",
"L#	c #13118E",
"M#	c #CB9F2A",
"N#	c #FBB107",
"O#	c #FDED06",
"P#	c #FCCA06",
"Q#	c #F9C108",
"R#	c #F9E80D",
"S#	c #FB9908",
"T#	c #FBB705",
"U#	c #FBC707",
"V#	c #FBC708",
"W#	c #FAD50B",
"X#	c #FAC80B",
"Y#	c #FBE30B",
"Z#	c #F9C00D",
"`#	c #F1D626",
" $	c #CFB45B",
".$	c #080882",
"+$	c #DBDAED",
"@$	c #030386",
"#$	c #010224",
"$$	c #494857",
"%$	c #F4F4FA",
"&$	c #4C4B95",
"*$	c #010157",
"=$	c #010131",
"-$	c #121287",
";$	c #C3A747",
">$	c #F8CA12",
",$	c #FAEA07",
"'$	c #FAD609",
")$	c #FACE0F",
"!$	c #F3D81F",
"~$	c #F8B20F",
"{$	c #FCC105",
"]$	c #F9D90D",
"^$	c #F8C310",
"/$	c #F5D51C",
"($	c #F5CE18",
"_$	c #F9DC10",
":$	c #F6C61C",
"<$	c #E0C65F",
"[$	c #D8D3CB",
"}$	c #08077A",
"|$	c #0605A1",
"1$	c #373747",
"2$	c #E9E9EE",
"3$	c #A4A3C0",
"4$	c #57567E",
"5$	c #E2E2EC",
"6$	c #9B9AC1",
"7$	c #E5D4A6",
"8$	c #EBC845",
"9$	c #F1D02A",
"0$	c #F3CF23",
"a$	c #EDCB32",
"b$	c #E7C644",
"c$	c #F4C41F",
"d$	c #F9CC0D",
"e$	c #F4D71F",
"f$	c #F2C427",
"g$	c #E9CA3D",
"h$	c #EBC73A",
"i$	c #F4D123",
"j$	c #EBC933",
"k$	c #E5D6A1",
"l$	c #FCFCFD",
"m$	c #9F9DC1",
"n$	c #EBEBF6",
"o$	c #595897",
"p$	c #9797A6",
"q$	c #FEFDFC",
"r$	c #F7F1E0",
"s$	c #ECDBAF",
"t$	c #E6D196",
"u$	c #E7D6A8",
"v$	c #EAD9B0",
"w$	c #ECC95B",
"x$	c #F0C936",
"y$	c #E6C64C",
"z$	c #E2C360",
"A$	c #E3D093",
"B$	c #E7D39C",
"C$	c #E6C971",
"D$	c #E3CD84",
"E$	c #FBF9F5",
"F$	c #FDFBF8",
"G$	c #FEFEFD",
"H$	c #FFFFFE",
"I$	c #FFFEFE",
"                                                                ",
"                                                                ",
"                          . + @ # $ %                           ",
"                    & * = - ; > , ' ) ! ~ {                     ",
"                ] ^ / ( _ : < [ } | 1 2 3 4 5 6                 ",
"              7 8 9 0 a b             c d e 3 f g               ",
"            h i j k l                     m n o p q             ",
"          r s t u                             v w x y           ",
"          z A B                                 C D E           ",
"        F G H I                                 ] J K L         ",
"        M N O                 P Q                 R S T         ",
"        U V W           Q X Y Z `  .  ..Y         +.@.#.        ",
"        $.%.&.*.      =.-.;.>.,.'.).!.~.{.].    ^.$ /.(.        ",
"      _.:.<.[.}.|.  ].1.2.3.4.5.6.7.8.9.0.a.  b.c.d.e.f.g.      ",
"    h.i.j.k.l.m.n.  o.p.q.r.s.t.u.v.w.x.y.z.  A.B.C.D.E.F.G.    ",
"  H.I.J.K.L.M.m.N.O.P.Q.R.S.T.U.V.W.X.Y.Z.`. +.+++@+#+$+S %+&+  ",
"  *+=+-+;+>+l.,+'+)+!+~+{+]+^+/+(+_+:+<+[+}+|+1+2+3+4+5+6+7+8+  ",
"  9+0+a+;+b+[.c+d+e+f+g+h+i+j+k+l+m+n+o+p+q+r+s+t+u+v+w+x+y+z+A+",
"b.B+C+D+E+b+F+G+H+I+J+K+L+M+N+O+P+Q+R+k+S+T+U+V+W+X+v+Y+Z+`+ @.@",
"+@@@#@$@;+b+%@&@*@=@-@;@>@,@'@)@!@~@{@]@^@/@(@_@:@<@4+[@Z+}@k.|@",
"1@2@3@$@;+L.4@5@6@7@8@9@0@a@b@c@d@e@f@g@h@i@j@k@l@m@n@o@p@q@b+r@",
"s@t@u@p@;+b+v@w@x@y@z@A@B@C@D@E@F@G@H@I@J@J@F@K@L@M@N@o@$@O@P@Q@",
"R@S@T@U@;+V@W@X@Y@Z@`@ #.#+#@###A@$#%#&#*#=#-#;#>#,#N@'#)#!#~#{#",
"  ]#^#/#;+b+(#_#:#<#[#}#|#1#2#3#4#5#6#7#8#9#0#a#>#b#N@c#d#e#f#  ",
"  g#h#i#;+b+j#w@k#l#m#n#o#p#q#r#s#t#u#v#w#x#y#z#A#B#C#D#E#F#G#  ",
"    H#I#J#b+K#L#M#N#O#P#Q#R#S#T#U#V#W#X#Y#Z#`# $.$+$C#@$#$$$%   ",
"    %$&$*$=$[.-$;$>$,$'$)$!$~${$]$^$/$($_$:$<$[$}$u+|$=$1$2$    ",
"      ] 3$4$5$6$7$8$9$0$a$b$c$d$e$f$g$h$i$j$k$l$m$n$o$p$I       ",
"                q$r$s$t$u$v$w$x$y$z$A$B$C$D$z.                  ",
"                             .E$F$G$H$  I$H$                    ",
"                                                                ",
"                                                                "};
