<svg version="1.1" viewBox="0 0 770.25 256" xmlns="http://www.w3.org/2000/svg">
 <g>
  <path d="m258.71 87.227c-10.363-0.015624-18.965 2.1094-22.293 3.2695l-3.4219 18.484c-0.007812 0.070312 17.043-4.5469 24.551-4.2734 12.434 0.44531 13.578 4.75 13.363 10.562 0.21094 0.33984-3.2109-5.25-13.969-5.4375-13.57-0.23438-32.723 4.8047-32.695 25.289-0.36719 23.043 17.211 29.824 29.184 29.945 10.762-0.19531 15.812-4.0742 18.574-6.1523 3.6328-3.7969 7.7891-7.6172 11.75-12.199-3.7461 6.8125-7 11.523-10.383 15.129v3.0469l16.359-2.7539 0.11328-44.473c-0.16797-6.293 3.6094-30.379-31.133-30.438zm-2.3477 38.719c6.7812 0.09375 14.559 3.4375 14.566 11.48 0.035156 7.3203-9.1641 11.254-15.148 11.191-5.9883-0.0625-13.934-4.7031-13.969-11.84 0.11719-6.375 7.4922-10.996 14.551-10.832z" fill="#fff" fill-rule="evenodd"/>
  <path d="m300.64 91.336-0.11328 73.645 19.062-3.6719 0.03125-41.758c0.003906-6.2148 8.8828-13.48 20.027-13.363 2.3633-4.2812 6.8086-15.215 7.8906-17.703-24.891-0.058594-25.207 7.1562-29.539 10.703-0.042969-6.7695-0.015625-10.832-0.015625-10.832z" fill="#fff" fill-rule="evenodd"/>
  <path d="m407.9 101c-0.18359-0.085937-9.9414-11.41-29.555-11.5-18.371-0.30469-38.98 6.8164-39.309 37.621 0.16016 27.086 19.793 37.672 39.414 37.879 20.992 0.21875 29.344-13.129 29.848-13.461-2.5078-2.168-11.887-11.465-11.887-11.465s-5.8633 8.3438-17.23 8.4492c-11.375 0.10938-21.262-8.7891-21.398-21.207-0.14844-12.414 9.0859-19.141 21.48-19.684 10.734-0.003907 16.926 6.9258 16.926 6.9258z" fill="#fff" fill-rule="evenodd"/>
  <path d="m431.92 65.562-17.996 4.2305 0.13672 95.926 17.727-3.2031 0.19922-45.141c0.039063-4.7344 6.8477-12.004 18.219-11.773 10.871 0.11328 13.301 7.2461 13.273 8.1484l0.3125 52.258 17.48-3.0898 0.066406-55.414c0.11328-5.332-11.68-16.594-30.641-16.672-9.0117 0.011719-14 2.0508-16.539 3.5547-4.3438 3.3594-9.3125 6.5742-14.191 10.676 4.5117-5.793 8.3008-9.8008 11.996-12.777z" fill="#fff" fill-rule="evenodd"/>
  <path d="m496.52 68.051 8.1133-2.0312 0.38672 96.707-8.2461 1.4062z" fill="#1793d1" fill-rule="evenodd"/>
  <path d="m518.59 96.914 7.1133-3.168 0.058594 69.344-6.8672 1.4219zm-1.6914-25.004 5.7344-4.6836 4.7656 5.3008-5.7383 4.8047z" fill="#1793d1" fill-rule="evenodd"/>
  <path d="m539.08 95.652 8.1172-1.6562 0.039063 14.496c0 0.62109 4.457-16.195 25.949-15.82 20.867 0.11328 24.281 16.27 24.168 19.895l0.25781 50.977-7.1133 1.543-0.042969-50.352c0.082031-1.4727-3.25-13.906-17.996-13.953-14.746-0.042969-24.961 10.711-24.945 17.582l0.11719 44.355-8.2422 2.1562z" fill="#1793d1" fill-rule="evenodd"/>
  <path d="m668.44 163.91-8.1172 1.6562-0.039062-14.496c0-0.625-4.4609 16.191-25.949 15.82-20.867-0.11719-24.281-16.273-24.172-19.895l-0.25391-50.98 8.6211-1.7383 0.13281 50.352c0.003906 1.375 1.6523 14.102 16.398 14.148 14.746 0.042968 25.074-8.8789 25.148-22.312l-0.10547-39.73 8.0273-2.0469z" fill="#1793d1" fill-rule="evenodd"/>
  <path d="m684.34 95.078-5.6914 4.4531 21.82 28.559-23.273 32.992 6.0391 4.4805 21.879-30.637 22.582 31.363 5.5859-4.4531-24.203-33.535 19.309-27.121-5.9375-5.0195-17.586 25.094z" fill="#1793d1" fill-rule="evenodd"/>
  <path d="m135.84 21.344c-9.4961 23.281-15.223 38.508-25.797 61.098 6.4844 6.8711 14.441 14.871 27.363 23.91-13.895-5.7188-23.367-11.457-30.449-17.414-13.531 28.234-34.73 68.453-77.746 145.75 33.809-19.52 60.02-31.555 84.445-36.145-1.0508-4.5117-1.6445-9.3906-1.6055-14.484l0.039063-1.082c0.53906-21.66 11.805-38.32 25.152-37.188 13.352 1.1328 23.727 19.617 23.188 41.281-0.097656 4.0742-0.55859 7.9961-1.3633 11.633 24.16 4.7266 50.09 16.73 83.445 35.984-6.5781-12.105-12.449-23.023-18.055-33.418-8.8281-6.8438-18.039-15.75-36.824-25.395 12.91 3.3555 22.156 7.2266 29.363 11.555-56.996-106.12-61.609-120.21-81.156-166.08z" fill="#1793d1" fill-rule="evenodd"/>
  <path d="m743.91 159.66v-5.9844h-2.2383v-0.80078h5.3789v0.80078h-2.2461v5.9844h-0.89453" fill="#fff"/>
  <path d="m747.99 159.66v-6.7852h1.3516l1.6055 4.8047c0.14844 0.44531 0.25781 0.78125 0.32422 1.0039 0.078125-0.24609 0.19922-0.60938 0.36328-1.0898l1.625-4.7188h1.207v6.7852h-0.86719v-5.6797l-1.9727 5.6797h-0.80859l-1.9609-5.7773v5.7773h-0.86719" fill="#fff"/>
  <path d="m243.56 215.64v-5.8477h-2.1836v-0.78125h5.2578v0.78125h-2.1953v5.8477h-0.87891" fill="#fff"/>
  <path d="m247.55 215.64v-6.6289h1.3203l1.5703 4.6953c0.14453 0.4375 0.25 0.76172 0.31641 0.98047 0.074219-0.24219 0.19141-0.59375 0.35156-1.0625l1.5859-4.6133h1.1836v6.6289h-0.84766v-5.5508l-1.9258 5.5508h-0.79297l-1.918-5.6445v5.6445h-0.84375" fill="#fff"/>
 </g>
</svg>
