/* XPM */
static char *putty_96[] = {
/* columns rows colors chars-per-pixel */
"96 96 8 1 ",
"  c black",
". c yellow",
"X c navy",
"o c #0000FF",
"O c #808080",
"+ c #C0C0C0",
"@ c white",
"# c None",
/* pixels */
"####################################################                                   #########",
"################################################### ++++++++++++++++++++++++++++++++++O ########",
"################################################## ++++++++++++++++++++++++++++++++++OO ########",
"################################################# ++++++++++++++++++++++++++++++++++OOO ########",
"################################################ ++++++++++++++++++++++++++++++++++OOOO ########",
"############################################### ++++++++++++++++++++++++++++++++++OOOOO ########",
"############################################## @@@@@@@@@@@@@@@@@@@@@@@@@@@@@@@@@+OOOOOO ########",
"############################################## @@@@@@@@@@@@@@@@@@@@@@@@@@@@@@@@+OOOOOOO ########",
"############################################## @@OOOOOOOOOOOOOOOOOOOOOOOOOOOOO++OOOOOOO ########",
"############################################## @@OXXXXXXXXXXXXXXXXXXXXXXXXXXXX@+OOOOOOO ########",
"############################################## @@OXXXXXXXXXXXXXXXXXXXXXXXXXXXX@+OOOOOOO ########",
"############################################## @@OXXoooooooooooooooooooooooooo@+OOOOOOO ########",
"############################################## @@OXXoooooooooooooooooooooooooo@+OOOOOOO ########",
"############################################## @@OXXoooooooooooooooooooooooooo@+OOOOOOO ########",
"############################################## @@OXXoooooooooooooooooooooooooo@+OOOOOOO ########",
"############################################## @@OXXoooooooooooooooooooooooooo@+OOOOOOO ########",
"############################################## @@OXXoooooooooooooooooooooooooo@+OOOOOOO ########",
"############################################## @@OXXooooooooooooooo  ooooooooo@+OOOOOOO ########",
"############################################## @@OXXoooooooooooooo . ooooooooo@+OOOOOOO ########",
"############################################## @@OXXooooooooooooo . oooooooooo@+OOOOOOO ########",
"############################################## @@OXXooooooooooo  . ooooooooooo@+OOOOOOO ########",
"############################################## @@OXXoooooooooo .. oooooooooooo@+OOOOOOO ########",
"############################################## @@OXXooooooooo .. ooooooooooooo@+OOOOOOO ########",
"############################################## @@OXXooooooo  .. oooooooooooooo@+OOOOOOO ########",
"############################################## @@OXXoooooo ... ooooooooooooooo@+OOOOOOO ########",
"############################################## @@OXXooooo .... ooooooooooooooo@+OOOOOOO ########",
"############################################## @@OXXooo  .... oooooooooooooooo@+OOOOOOO ########",
"############################################## @@OXXoo ..... ooooooooooooooooo@+OOOOOOO ########",
"############################################## @@OXXo ..... oooooooooooooooooo@+OOOOOOO ########",
"#############################################  @@+@  ..... @@@@@@@@@@@@@@@@@@@@+OOOOOOO        #",
"############################################ + @@@ ...... @@@@@@@@@@@@@@@@@@@@@+OOOOOO ++++@@@O ",
"########################################### ++ @@ ...... ++++++++++++++++++++++OOOOOO ++++@@@OO ",
"########################################## +++   ...... +++++++++++++++++++++++OOOOO ++++@@@OOO ",
"######################################### ++++ ....... OOOOOOOOOOOOOOOOOOOOOOOOOOOO ++++@@@OOOO ",
"######################################## ++++ ....... OOOOOOOOOOOOOOOOOOOOOOOOOOOO ++++@@@OOOOO ",
"####################################### +++  .......                              ++++@@@OOOOOO ",
"###################################### @@@ ........ @@@@@@@@@@@@@@@@@@@@@@@@@@@@@@@@@@@@+OOOOOO ",
"###################################### @@ ........ @@@@@@@@@@@@@@@@@@@@@@@@@@@@@@@@@@@@+OOOOOOO ",
"######################################   ........ @@@@@@@@@@@@@@@@@@@@@@@@@@@@@@@@@@@@+OOOOOOOO ",
"###################################### .........             +++++++++++++++++++++++++OOOOOOOOO ",
"##################################### ....................... ++++++++++++++++++++++++OOOOOOOOO ",
"#################################### ......................  +++++++++++++++++++++++++OOOOOOOO #",
"##################################  ...................... ++++++++O              O+++OOOOOOO ##",
"################################# ....................... +++++++++O              O+++OOOOOO ###",
"##################################             ......... OOOOOOOOOOOOOOOOOOOOOOOOOOOOOOOOOO ####",
"###################################### +++OOO ........  OOOOOOOOOOOOOOOOOOOOOOOOOOOOOOOOOO #####",
"###################################### +++OO ........ OOOOOOOOOOOOOOOOOOOOOOOOOOOOOOOOOOO ######",
"#######################################     ........                                     #######",
"##############                             .......  ############################################",
"############# +++++++++++++++++++++++++++ ....... ##############################################",
"############ +++++++++++++++++++++++++++ .......  ##############################################",
"########### +++++++++++++++++++++++++++ ......  O ##############################################",
"########## +++++++++++++++++++++++++++ ...... OOO ##############################################",
"######### +++++++++++++++++++++++++++ ...... OOOO ##############################################",
"######## @@@@@@@@@@@@@@@@@@@@@@@@@@@ .....  OOOOO ##############################################",
"######## @@@@@@@@@@@@@@@@@@@@@@@@@@ ..... OOOOOOO ##############################################",
"######## @@OOOOOOOOOOOOOOOOOOOOOOO ..... +OOOOOOO ##############################################",
"######## @@OXXXXXXXXXXXXXXXXXXXXX ....  @+OOOOOOO ##############################################",
"######## @@OXXXXXXXXXXXXXXXXXXXX .... XX@+OOOOOOO ##############################################",
"######## @@OXXoooooooooooooooooo ... ooo@+OOOOOOO ##############################################",
"######## @@OXXooooooooooooooooo ..  oooo@+OOOOOOO ##############################################",
"######## @@OXXoooooooooooooooo .. oooooo@+OOOOOOO ##############################################",
"######## @@OXXooooooooooooooo .. ooooooo@+OOOOOOO ##############################################",
"######## @@OXXoooooooooooooo .  oooooooo@+OOOOOOO ##############################################",
"######## @@OXXooooooooooooo . oooooooooo@+OOOOOOO ##############################################",
"######## @@OXXoooooooooooo . ooooooooooo@+OOOOOOO ##############################################",
"######## @@OXXoooooooooooo  oooooooooooo@+OOOOOOO ##############################################",
"######## @@OXXoooooooooooooooooooooooooo@+OOOOOOO ##############################################",
"######## @@OXXoooooooooooooooooooooooooo@+OOOOOOO ##############################################",
"######## @@OXXoooooooooooooooooooooooooo@+OOOOOOO ##############################################",
"######## @@OXXoooooooooooooooooooooooooo@+OOOOOOO ##############################################",
"######## @@OXXoooooooooooooooooooooooooo@+OOOOOOO ##############################################",
"######## @@OXXoooooooooooooooooooooooooo@+OOOOOOO ##############################################",
"######## @@OXXoooooooooooooooooooooooooo@+OOOOOOO ##############################################",
"######## @@OXXoooooooooooooooooooooooooo@+OOOOOOO ##############################################",
"######## @@OXXoooooooooooooooooooooooooo@+OOOOOOO ##############################################",
"######## @@OXXoooooooooooooooooooooooooo@+OOOOOOO ##############################################",
"#######  @@+@@@@@@@@@@@@@@@@@@@@@@@@@@@@@+OOOOOOO        #######################################",
"###### + @@@@@@@@@@@@@@@@@@@@@@@@@@@@@@@@+OOOOOO ++++@@@O ######################################",
"##### ++ @@++++++++++++++++++++++++++++++OOOOOO ++++@@@OO ######################################",
"#### +++ @@++++++++++++++++++++++++++++++OOOOO ++++@@@OOO ######################################",
"### ++++ @+OOOOOOOOOOOOOOOOOOOOOOOOOOOOOOOOOO ++++@@@OOOO ######################################",
"## +++++ +OOOOOOOOOOOOOOOOOOOOOOOOOOOOOOOOOO ++++@@@OOOOO ######################################",
"# ++++++                                    ++++@@@OOOOOO ######################################",
" @@@@@@@@@@@@@@@@@@@@@@@@@@@@@@@@@@@@@@@@@@@@@@@@@+OOOOOO ######################################",
" @@@@@@@@@@@@@@@@@@@@@@@@@@@@@@@@@@@@@@@@@@@@@@@@+OOOOOOO ######################################",
" @@@@@@@@@@@@@@@@@@@@@@@@@@@@@@@@@@@@@@@@@@@@@@@+OOOOOOOO ######################################",
" @@@++++++++++++++++++++++++++++++++++++++++++++OOOOOOOOO ######################################",
" @@@++++++++++++++++++++++++++++++++++++++++++++OOOOOOOOO ######################################",
" @@@++++++++++++++++++++++++++++++++++++++++++++OOOOOOOO #######################################",
" @@@+++++++++++++++++++++++++O              O+++OOOOOOO ########################################",
" @@@+++++++++++++++++++++++++O              O+++OOOOOO #########################################",
" +++OOOOOOOOOOOOOOOOOOOOOOOOOOOOOOOOOOOOOOOOOOOOOOOOO ##########################################",
" +++OOOOOOOOOOOOOOOOOOOOOOOOOOOOOOOOOOOOOOOOOOOOOOOO ###########################################",
" +++OOOOOOOOOOOOOOOOOOOOOOOOOOOOOOOOOOOOOOOOOOOOOOO ############################################",
"#                                                  #############################################"
};
